<svg width="26" height="29" viewBox="0 0 26 29" fill="none" xmlns="http://www.w3.org/2000/svg">
<path d="M16.0564 5.42407L1.75084 20.8781C1.67887 20.9561 1.6269 21.0546 1.60215 21.1604L0.0165161 28.0352C-0.0309149 28.2422 0.0253836 28.4623 0.165202 28.6133C0.270994 28.7276 0.415143 28.7908 0.562591 28.7908C0.607754 28.7908 0.653947 28.7848 0.698904 28.7726L7.06332 27.0595C7.16251 27.0328 7.25263 26.9769 7.3246 26.8991L21.6314 11.4462L16.0564 5.42407Z" fill="black"/>
<path d="M25.1758 3.31698L23.5834 1.59682C22.5191 0.44715 20.6641 0.448264 19.601 1.59682L17.6504 3.70392L23.2252 9.72582L25.1758 7.61872C25.7075 7.04467 26.0003 6.2806 26.0003 5.46796C26.0003 4.65533 25.7075 3.89126 25.1758 3.31698Z" fill="black"/>
</svg>
