<svg width="127" height="87" viewBox="0 0 127 87" fill="none" xmlns="http://www.w3.org/2000/svg">
<path d="M111.487 0.390747H15.5128C6.95941 0.390747 0 7.35016 0 15.9035V71.0964C0 79.6498 6.95941 86.6092 15.5128 86.6092H111.487C120.041 86.6092 127 79.6498 127 71.0964V15.9052C127.002 7.35016 120.042 0.390747 111.487 0.390747ZM103.907 10.5111L63.5 36.5439L23.0929 10.5111H103.907ZM111.487 76.4906H15.5128C12.5391 76.4906 10.1203 74.0701 10.1203 71.0981V16.192L60.3779 48.5095C60.4454 48.5517 60.5179 48.5804 60.587 48.6192C60.6596 48.6597 60.7338 48.6985 60.808 48.7356C61.1976 48.9363 61.5991 49.0982 62.0089 49.2045C62.0511 49.2163 62.0933 49.2213 62.1354 49.2315C62.5858 49.3377 63.0412 49.4035 63.4966 49.4035C63.4983 49.4035 63.5 49.4035 63.5 49.4035C63.5034 49.4035 63.5051 49.4035 63.5068 49.4035C63.9622 49.4035 64.4176 49.3394 64.8679 49.2315C64.9101 49.2213 64.9523 49.2163 64.9944 49.2045C65.4043 49.0982 65.8041 48.9363 66.1954 48.7356C66.2696 48.6985 66.3438 48.6597 66.4163 48.6192C66.4855 48.5804 66.558 48.5517 66.6255 48.5095L116.883 16.192V71.0964C116.881 74.0701 114.461 76.4906 111.487 76.4906Z" fill="black"/>
</svg>
