<?xml version="1.0" encoding="utf-8"?>
<!-- Generator: Adobe Illustrator 24.0.0, SVG Export Plug-In . SVG Version: 6.00 Build 0)  -->
<svg version="1.1" id="Capa_1" xmlns="http://www.w3.org/2000/svg" xmlns:xlink="http://www.w3.org/1999/xlink" x="0px" y="0px"
	 viewBox="0 0 26 26" style="enable-background:new 0 0 26 26;" xml:space="preserve">
<style type="text/css">
	.st0{fill:#62B13E;}
	.st1{fill:#4A7F2E;}
</style>
<g>
	<path class="st0" d="M3,0.2h18c1.7,0,3,1.3,3,3v10c0,0.3-0.1,0.6-0.1,0.9l-2.1-1.8c-0.5-0.5-1.4-0.7-2.1-0.4L16,8.1l7-5.4L12,8.6
		L1,2.7l7,5.4L2.2,14l7-5l2.8,1.8L14.8,9l4.5,3.2c-0.5,0.4-0.7,0.9-0.7,1.5v1c-1.1,0.2-2.5,0.6-3.7,1.4H3c-1.7,0-3-1.3-3-3v-10
		C0,1.6,1.3,0.2,3,0.2z"/>
	<g>
		<path class="st1" d="M20,13.7v2.4c-3.2,0-7.5,1.6-7.5,9.6c1.4-5.1,3.3-5.5,7.5-5.5v2.5c0,0.2,0.1,0.4,0.3,0.4c0.1,0,0.1,0,0.2,0
			c0.1,0,0.2,0,0.3-0.1l5-4.5c0.2-0.2,0.2-0.5,0-0.7l-5-4.5c-0.1-0.1-0.3-0.2-0.5-0.1S20,13.5,20,13.7z"/>
	</g>
</g>
</svg>
