<svg width="90" height="142" viewBox="0 0 90 142" fill="none" xmlns="http://www.w3.org/2000/svg">
<path d="M89.7529 19.8912C89.7529 8.97369 80.9282 0.125 70.0403 0.125C59.1523 0.125 50.3276 8.97369 50.3276 19.8912C50.3276 22.6306 50.8942 25.9263 51.8877 28.3023C55.6636 37.3332 65.5278 61.0494 68.8942 69.1437C60.9805 62.1912 50.4269 58.2639 39.071 59.021C16.2371 60.3446 -1.11893 80.0641 0.33288 102.96C1.71849 125.79 21.3852 143.127 44.2186 141.804C67.0525 140.414 84.4085 120.695 82.8911 97.7986C82.2437 87.1027 77.6196 77.6071 70.5496 70.6782C73.0533 64.664 84.1365 38.0397 88.1934 28.3377C89.1858 25.9612 89.7529 22.6306 89.7529 19.8912ZM39.5984 136.907C31.5472 136.378 23.826 133.201 17.6227 127.775C10.2975 121.29 6.00771 112.291 5.348 102.63C4.68829 93.8949 6.79981 85.6897 12.0791 78.8075C12.2772 80.594 13.2667 81.9839 13.2667 83.2411C13.2667 88.204 12.8707 91.1819 16.0385 95.0862C17.2923 96.542 17.7545 98.9242 18.2824 100.777C18.9421 102.564 21.0542 103.424 22.6378 104.483C25.6733 106.468 28.6431 109.049 31.9427 110.835C34.0542 112.026 35.3086 112.622 34.9782 115.202C34.5821 117.187 34.5821 118.511 33.5926 120.364C33.3945 121.025 35.0444 124.4 35.5722 124.797C37.2883 126.187 38.8719 127.577 40.6536 128.834C43.4259 130.819 40.6541 133.797 39.5984 136.907ZM73.5851 107.196C73.5851 107.196 75.6966 107.857 77.4126 107.394C76.1588 113.879 73.3209 119.769 68.8336 124.864C63.8841 130.489 57.6147 134.393 50.5531 136.113C51.4108 133.599 53.0607 131.15 54.6449 129.76C56.0305 128.503 57.6803 126.253 58.3406 124.599C59.0003 122.812 59.7924 121.29 60.8481 119.636C62.1019 117.386 56.9544 114.21 55.2389 113.68C51.4114 112.291 48.5734 110.372 45.2738 108.254C42.8318 106.799 35.5728 110.174 32.801 109.114C29.1053 107.725 27.8515 106.6 24.5519 104.482C21.186 102.232 22.11 97.4679 21.9119 93.9607C24.4195 93.9607 27.9172 92.9021 29.765 94.8207C30.2929 95.4822 32.2726 98.1294 33.4607 97.0707C34.7145 95.7472 32.801 92.5707 32.405 91.8429C31.2168 89.5929 34.5165 88.3357 36.2325 86.6814C38.3446 84.4314 42.898 80.7256 42.3701 79.3362C41.8423 77.8805 37.2226 73.7112 34.6489 74.7041C34.121 74.7041 31.1512 78.0127 30.5571 78.542C30.5571 77.3506 30.3591 76.7555 30.3591 75.6963C30.3591 74.9684 28.9073 74.3069 28.9735 73.7771C29.1053 72.5199 32.2731 70.0713 32.9991 69.1449C32.3388 68.7477 30.2273 67.2256 29.6994 67.4242C28.3138 68.1521 26.6634 68.6814 25.146 69.3434C25.146 68.8141 25.0141 68.2848 24.9479 67.9541C27.7859 66.4983 30.8875 65.4397 34.0548 64.6454L36.8928 65.7041L39.0049 67.9541L41.1169 69.9391C41.1169 69.9391 42.3707 70.4684 42.8986 70.4684C43.5589 70.3362 45.5385 67.6891 45.5385 67.6891L44.6808 65.7041L44.549 63.9176C50.2244 64.4469 55.5699 66.1676 60.3214 69.0791C59.5955 69.2112 58.5397 69.2776 57.5496 69.6084C57.1535 69.4098 54.9096 69.8069 55.042 70.7997C55.1739 71.5276 59.0676 74.7041 60.7174 77.4834C62.4334 80.3291 67.1849 82.1155 68.0426 85.3578C68.9004 89.0636 67.5148 93.8279 68.1745 98.2616C68.8336 102.629 73.5851 107.196 73.5851 107.196ZM70.0397 29.0178C65.0908 29.0178 61.0781 24.9942 61.0781 20.0319C61.0781 15.0689 65.0908 11.0459 70.0397 11.0459C74.9892 11.0459 79.0013 15.0695 79.0013 20.0319C79.0019 24.9942 74.9892 29.0178 70.0397 29.0178Z" fill="black"/>
</svg>
