<svg width="122" height="122" viewBox="0 0 122 122" fill="none" xmlns="http://www.w3.org/2000/svg">
<g clip-path="url(#clip0)">
<path d="M33 13.783V109.217C33 109.649 33.3212 110 33.7172 110H87.2828C87.6788 110 88 109.649 88 109.217V13.783C88 13.3509 87.679 13 87.2828 13H33.7172C33.3212 13 33 13.3509 33 13.783ZM34.4344 14.566H86.5656V108.434H34.4344V14.566Z" fill="black"/>
<path d="M65.1777 110.495H56.7458C55.2511 110.495 54.0342 111.712 54.0342 113.205V114.892C54.0342 116.386 55.2511 117.601 56.7458 117.601H65.1777C66.6727 117.601 67.8896 116.384 67.8896 114.892V113.205C67.8874 111.712 66.6727 110.495 65.1777 110.495ZM66.3219 114.891C66.3219 115.522 65.8084 116.035 65.1757 116.035H56.7441C56.1116 116.035 55.598 115.522 55.598 114.891V113.205C55.598 112.574 56.1116 112.061 56.7441 112.061H65.1757C65.8084 112.061 66.3219 112.574 66.3219 113.205V114.891Z" fill="black"/>
<path d="M53.8551 7.84944H68.9527C69.6294 7.84944 70.178 7.30039 70.178 6.62406C70.178 5.94991 69.6292 5.40063 68.9527 5.40063H53.8551C53.1787 5.40063 52.6299 5.94969 52.6299 6.62406C52.6297 7.29842 53.1787 7.84944 53.8551 7.84944ZM53.8551 5.92044H68.9527C69.341 5.92044 69.6563 6.23568 69.6563 6.62187C69.6563 7.01003 69.3413 7.32527 68.9527 7.32527H53.8551C53.4669 7.32527 53.1516 7.01003 53.1516 6.62187C53.1516 6.23568 53.4667 5.92044 53.8551 5.92044Z" fill="black"/>
<path d="M54.8174 6.97466C55.011 6.97466 55.168 6.81768 55.168 6.62405C55.168 6.43041 55.011 6.27344 54.8174 6.27344C54.6238 6.27344 54.4668 6.43041 54.4668 6.62405C54.4668 6.81768 54.6238 6.97466 54.8174 6.97466Z" fill="black"/>
<path d="M55.8418 6.97466C56.0355 6.97466 56.1924 6.81768 56.1924 6.62405C56.1924 6.43041 56.0355 6.27344 55.8418 6.27344C55.6482 6.27344 55.4912 6.43041 55.4912 6.62405C55.4912 6.81768 55.6482 6.97466 55.8418 6.97466Z" fill="black"/>
<path d="M56.8652 6.97466C57.0589 6.97466 57.2159 6.81768 57.2159 6.62405C57.2159 6.43041 57.0589 6.27344 56.8652 6.27344C56.6716 6.27344 56.5146 6.43041 56.5146 6.62405C56.5146 6.81768 56.6716 6.97466 56.8652 6.97466Z" fill="black"/>
<path d="M57.8877 6.97466C58.0814 6.97466 58.2383 6.81768 58.2383 6.62405C58.2383 6.43041 58.0814 6.27344 57.8877 6.27344C57.6941 6.27344 57.5371 6.43041 57.5371 6.62405C57.5371 6.81768 57.6941 6.97466 57.8877 6.97466Z" fill="black"/>
<path d="M58.9151 6.97466C59.1087 6.97466 59.2657 6.81768 59.2657 6.62405C59.2657 6.43041 59.1087 6.27344 58.9151 6.27344C58.7214 6.27344 58.5645 6.43041 58.5645 6.62405C58.5645 6.81768 58.7214 6.97466 58.9151 6.97466Z" fill="black"/>
<path d="M59.9385 6.97466C60.1321 6.97466 60.2891 6.81768 60.2891 6.62405C60.2891 6.43041 60.1321 6.27344 59.9385 6.27344C59.7449 6.27344 59.5879 6.43041 59.5879 6.62405C59.5879 6.81768 59.7449 6.97466 59.9385 6.97466Z" fill="black"/>
<path d="M60.961 6.97466C61.1546 6.97466 61.3116 6.81768 61.3116 6.62405C61.3116 6.43041 61.1546 6.27344 60.961 6.27344C60.7673 6.27344 60.6104 6.43041 60.6104 6.62405C60.6104 6.81768 60.7673 6.97466 60.961 6.97466Z" fill="black"/>
<path d="M61.9844 6.97466C62.178 6.97466 62.335 6.81768 62.335 6.62405C62.335 6.43041 62.178 6.27344 61.9844 6.27344C61.7908 6.27344 61.6338 6.43041 61.6338 6.62405C61.6338 6.81768 61.7908 6.97466 61.9844 6.97466Z" fill="black"/>
<path d="M63.0088 6.97466C63.2024 6.97466 63.3594 6.81768 63.3594 6.62405C63.3594 6.43041 63.2024 6.27344 63.0088 6.27344C62.8152 6.27344 62.6582 6.43041 62.6582 6.62405C62.6582 6.81768 62.8152 6.97466 63.0088 6.97466Z" fill="black"/>
<path d="M64.0362 6.97466C64.2298 6.97466 64.3868 6.81768 64.3868 6.62405C64.3868 6.43041 64.2298 6.27344 64.0362 6.27344C63.8425 6.27344 63.6855 6.43041 63.6855 6.62405C63.6855 6.81768 63.8425 6.97466 64.0362 6.97466Z" fill="black"/>
<path d="M65.0586 6.97466C65.2523 6.97466 65.4092 6.81768 65.4092 6.62405C65.4092 6.43041 65.2523 6.27344 65.0586 6.27344C64.865 6.27344 64.708 6.43041 64.708 6.62405C64.708 6.81768 64.865 6.97466 65.0586 6.97466Z" fill="black"/>
<path d="M66.0821 6.97466C66.2757 6.97466 66.4327 6.81768 66.4327 6.62405C66.4327 6.43041 66.2757 6.27344 66.0821 6.27344C65.8884 6.27344 65.7314 6.43041 65.7314 6.62405C65.7314 6.81768 65.8884 6.97466 66.0821 6.97466Z" fill="black"/>
<path d="M67.1045 6.97466C67.2981 6.97466 67.4551 6.81768 67.4551 6.62405C67.4551 6.43041 67.2981 6.27344 67.1045 6.27344C66.9109 6.27344 66.7539 6.43041 66.7539 6.62405C66.7539 6.81768 66.9109 6.97466 67.1045 6.97466Z" fill="black"/>
<path d="M68.1319 6.97466C68.3255 6.97466 68.4825 6.81768 68.4825 6.62405C68.4825 6.43041 68.3255 6.27344 68.1319 6.27344C67.9382 6.27344 67.7812 6.43041 67.7812 6.62405C67.7812 6.81768 67.9382 6.97466 68.1319 6.97466Z" fill="black"/>
<path d="M81.9561 7.84719C82.4265 7.84719 82.8078 7.4659 82.8078 6.99556C82.8078 6.52521 82.4265 6.14392 81.9561 6.14392C81.4858 6.14392 81.1045 6.52521 81.1045 6.99556C81.1045 7.4659 81.4858 7.84719 81.9561 7.84719Z" fill="black"/>
<path d="M44.9243 112.708H40.8681C40.7408 112.708 40.6406 112.81 40.6406 112.936V115.032C40.6406 115.157 40.743 115.259 40.8681 115.259C40.9932 115.259 41.0914 115.157 41.0914 115.032V113.161H44.6988V115.032C44.6988 115.157 44.8032 115.259 44.9243 115.259C45.0497 115.259 45.1518 115.157 45.1518 115.032V112.936C45.154 112.81 45.0497 112.708 44.9243 112.708Z" fill="black"/>
<path d="M43.8316 113.587H41.9589C41.8336 113.587 41.7334 113.689 41.7334 113.814C41.7334 113.94 41.8358 114.04 41.9589 114.04H43.8316C43.9589 114.04 44.0591 113.94 44.0591 113.814C44.0593 113.689 43.9591 113.587 43.8316 113.587Z" fill="black"/>
<path d="M43.8316 114.499H41.9589C41.8336 114.499 41.7334 114.604 41.7334 114.727C41.7334 114.852 41.8358 114.954 41.9589 114.954H43.8316C43.9589 114.954 44.0591 114.852 44.0591 114.727C44.0593 114.604 43.9591 114.499 43.8316 114.499Z" fill="black"/>
<path d="M79.4114 113.184H77.8501L77.8939 113.073L77.0986 113.409L77.8939 113.745L77.8501 113.637H79.4114C79.8834 113.637 80.2677 114.008 80.2677 114.47C80.2677 114.929 79.8834 115.301 79.4114 115.301H77.8793C77.7518 115.301 77.656 115.403 77.656 115.526C77.656 115.651 77.754 115.754 77.8793 115.754H79.4114C80.1338 115.754 80.7205 115.176 80.7205 114.468C80.7205 113.76 80.1336 113.184 79.4114 113.184Z" fill="black"/>
<path d="M87.3443 3.63125H87.3446C90.4582 3.62945 92.9902 6.16299 92.9902 9.27521V112.725C92.9902 115.837 90.4583 118.369 87.3462 118.369H34.6573C31.5452 118.369 29.0133 115.837 29.0133 112.725V9.27521C29.0133 6.16315 31.5452 3.63125 34.6573 3.63125H87.3443ZM24.8818 9.27521V112.725C24.8818 118.115 29.2663 122.5 34.657 122.5H87.344C92.7348 122.5 97.1193 118.115 97.1193 112.725V9.27521C97.1195 3.88444 92.7348 -0.499999 87.344 -0.499999H34.6573C29.2661 -0.501966 24.8818 3.88265 24.8818 9.27521Z" fill="black" stroke="black"/>
</g>
<defs>
<clipPath id="clip0">
<rect width="122" height="122" fill="white"/>
</clipPath>
</defs>
</svg>
