<svg width="42" height="42" viewBox="0 0 42 42" fill="none" xmlns="http://www.w3.org/2000/svg">
<path d="M21 42C9.42014 42 0 32.5799 0 21C0 9.42014 9.42014 0 21 0C32.5799 0 42 9.42014 42 21C42 32.5799 32.5799 42 21 42Z" fill="#F44336"/>
<path d="M28.7337 15.7413C29.4179 15.0569 29.4179 13.9511 28.7337 13.2666C28.3925 12.9254 27.9445 12.7539 27.4962 12.7539C27.0483 12.7539 26.6003 12.9254 26.259 13.2666L21.0004 18.5256L15.7417 13.2666C15.4005 12.9254 14.9525 12.7539 14.5045 12.7539C14.0562 12.7539 13.6083 12.9254 13.267 13.2666C12.5829 13.9511 12.5829 15.0569 13.267 15.7413L18.526 21L13.267 26.2586C12.5829 26.9431 12.5829 28.0489 13.267 28.7334C13.9515 29.4175 15.0573 29.4175 15.7417 28.7334L21.0004 23.4744L26.259 28.7334C26.9435 29.4175 28.0493 29.4175 28.7337 28.7334C29.4179 28.0489 29.4179 26.9431 28.7337 26.2586L23.4748 21L28.7337 15.7413Z" fill="#FAFAFA"/>
</svg>
