<svg width="44" height="44" viewBox="0 0 44 44" fill="none" xmlns="http://www.w3.org/2000/svg">
<g clip-path="url(#clip0_858:716)">
<path d="M24.4931 15.6839C24.4221 15.6839 24.3512 15.6839 24.2802 15.6839C23.4995 15.5419 23.0028 14.8323 23.1447 14.0516L24.2802 7.66452C24.1383 4.96774 22.0092 2.83871 19.3124 2.83871C16.6157 2.83871 14.4157 5.03871 14.4157 7.73548C14.4157 7.80645 14.4157 7.87742 14.4157 7.94839L13.2802 14.4774C13.1383 15.2581 12.4286 15.7548 11.6479 15.6129C10.8673 15.471 10.3705 14.7613 10.5124 13.9806L11.6479 7.52258C11.6479 3.40645 15.1253 0 19.3124 0C23.5705 0 27.0479 3.47742 27.0479 7.73548C27.0479 7.80645 27.0479 7.87742 27.0479 7.94839L25.9124 14.4774C25.7705 15.1871 25.2028 15.6839 24.4931 15.6839Z" fill="#3E3F3F"/>
<path d="M24.2794 15.6839C24.3504 15.6839 24.4214 15.6839 24.4924 15.6839C25.202 15.6839 25.7698 15.1871 25.9117 14.5484L26.9053 8.79999C26.1956 5.32257 23.073 2.62579 19.3117 2.62579C15.1246 2.62579 11.6472 6.03225 11.5762 10.2193L10.7246 15.1161C10.9375 15.4 11.2214 15.6129 11.5762 15.6839C12.3569 15.8258 13.0665 15.329 13.2085 14.5484L14.344 8.01934C14.344 7.94837 14.344 7.87741 14.344 7.80644C14.344 5.10966 16.544 2.90966 19.2407 2.90966C21.9375 2.90966 24.0665 5.0387 24.1375 7.6645L23.9246 8.94192C24.0665 9.36773 24.1375 9.79354 24.1375 10.2903L23.2859 15.1871C23.5698 15.4 23.8536 15.6129 24.2794 15.6839Z" fill="#1D1E1E"/>
<path d="M41.8098 41.8L37.9066 13.2C37.7646 12.3484 37.055 11.7097 36.1324 11.7097H7.88722C7.03561 11.7097 6.25496 12.3484 6.11303 13.2L2.13884 42.0129C2.06787 42.5097 2.2098 43.0064 2.56464 43.4322C2.91948 43.7871 3.41625 44 3.91303 44H40.1066C41.1001 44 41.8808 43.2193 41.8808 42.2258C41.8808 42.0839 41.8808 41.9419 41.8098 41.8Z" fill="#18456D"/>
<path d="M38.757 19.3032L32.5118 13.058L30.5957 15.0451L36.9828 32.8581L38.757 19.3032Z" fill="#0B3249"/>
<path d="M31.7313 24.9806L29.8152 39.529L17.8926 15.0451L19.8087 13.058L31.7313 24.9806Z" fill="#0B3249"/>
<path d="M13.0664 44H40.1051C41.0987 44 41.8793 43.2193 41.8793 42.2258C41.8793 42.0839 41.8793 41.9419 41.8083 41.8L37.9051 13.2C37.7632 12.3484 37.0535 11.7097 36.1309 11.7097" fill="#0B3249"/>
<path d="M13.7775 42.2258C13.7775 42.0839 13.7775 41.9419 13.7066 41.8L9.80335 13.2C9.66142 12.3484 8.95174 11.7097 8.02916 11.7097H7.88722C7.03561 11.7097 6.25496 12.3484 6.11303 13.2L2.13884 42.0129C2.06787 42.5097 2.2098 43.0064 2.56464 43.4322C2.91948 43.7871 3.41625 44 3.91303 44H12.0034C12.9969 44 13.7775 43.2193 13.7775 42.2258Z" fill="#1D7099"/>
<path d="M2.56445 43.4322C2.91929 43.7871 3.41607 44 3.91284 44H12.0032C12.9967 44 13.7774 43.2193 13.7774 42.2258C13.7774 42.0839 13.7774 41.9419 13.7064 41.8L9.80316 13.2C9.66122 12.3484 8.95155 11.7097 8.02897 11.7097H7.88703" fill="#1B5A89"/>
<path d="M31.5901 15.6839C30.9514 15.6839 30.3127 15.1871 30.1707 14.5484L29.1062 7.94839C29.1062 7.87742 29.1062 7.80645 29.1062 7.73548C29.1062 5.03871 26.9062 2.83871 24.2094 2.83871C21.5127 2.83871 19.3836 4.96774 19.3127 7.59355L20.4481 13.9806C20.5901 14.7613 20.0933 15.471 19.3127 15.6129C18.532 15.7548 17.8223 15.2581 17.6804 14.4774L16.5449 7.94839C16.5449 7.87742 16.5449 7.80645 16.5449 7.73548C16.5449 3.47742 20.0223 0 24.2804 0C28.3965 0 31.803 3.40645 31.874 7.59355L33.0094 14.0516C33.1514 14.8323 32.6546 15.5419 31.874 15.6839C31.803 15.6839 31.732 15.6839 31.5901 15.6839Z" fill="#1B5A89"/>
<path d="M31.943 7.7355C30.8075 4.82582 28.0397 2.76776 24.7042 2.76776C20.4462 2.76776 16.9688 6.24518 16.9688 10.5032C16.9688 10.5742 16.9688 10.6452 16.9688 10.7161L17.6784 14.9032C17.9623 15.471 18.53 15.8258 19.1688 15.6839C19.9494 15.542 20.4462 14.8323 20.3042 14.0516L19.1688 7.66453C19.3107 4.96776 21.5107 2.83873 24.2075 2.83873C26.9042 2.83873 29.1042 5.03873 29.1042 7.7355C29.1042 7.80647 29.1042 7.87744 29.1042 7.94841L29.1752 8.44518C29.4591 9.08389 29.601 9.7226 29.601 10.4323C29.601 10.5032 29.601 10.5742 29.601 10.6452L30.3107 14.8323C30.5236 15.329 31.0204 15.6129 31.5881 15.6129C31.6591 15.6129 31.73 15.6129 31.801 15.6129C32.5817 15.471 33.0784 14.7613 32.9365 13.9807L31.943 7.7355Z" fill="#18456D"/>
<path d="M26.0535 20.2258C24.6341 20.2258 23.2857 20.0129 22.0793 19.6581C20.8728 20.0129 19.5244 20.2258 18.1051 20.2258C16.6147 20.2258 15.1954 20.0129 13.918 19.5871V32.2903C13.918 35.7678 17.4664 38.6065 22.0793 39.1032C26.6922 38.6774 30.2405 35.7678 30.2405 32.2903V19.5871C28.8922 20.0129 27.4728 20.2258 26.0535 20.2258Z" fill="#58A300"/>
<path d="M26.0535 19.5871C24.6341 19.5871 23.2857 17.6709 22.0793 17.3161C20.8728 17.6709 19.5244 19.5871 18.1051 19.5871C16.6147 19.5871 15.1954 19.3742 13.918 18.9484V31.6516C13.918 35.129 17.4664 37.9677 22.0793 38.4645C26.6922 38.0387 30.2405 35.129 30.2405 31.6516V18.9484C28.8922 19.3742 27.4728 19.5871 26.0535 19.5871Z" fill="#82CC00"/>
<path d="M22.0098 38.4645C26.6227 38.0387 30.242 35.129 30.242 31.6516V18.9484C28.9646 19.3742 27.5452 19.5871 26.0549 19.5871C24.6356 19.5871 23.2872 17.6709 22.0807 17.3161" fill="#5DBA02"/>
<path d="M20.7315 32.1484C20.5895 32.1484 20.4476 32.0774 20.3057 32.0065L17.8218 29.5226C17.6089 29.3097 17.6089 28.9549 17.8218 28.742C18.0347 28.5291 18.3895 28.5291 18.6024 28.742L20.6605 30.8L25.3444 26.1162C25.5573 25.9033 25.9121 25.9033 26.125 26.1162C26.3379 26.3291 26.3379 26.6839 26.125 26.8968L21.0863 31.9355C21.0153 32.0774 20.8734 32.1484 20.7315 32.1484Z" fill="#58A300"/>
<path d="M20.7315 30.9419C20.5895 30.9419 20.4476 30.871 20.3057 30.8L17.8218 28.3161C17.6089 28.1032 17.6089 27.7484 17.8218 27.5355C18.0347 27.3226 18.3895 27.3226 18.6024 27.5355L20.6605 29.5936L25.3444 24.9097C25.5573 24.6968 25.9121 24.6968 26.125 24.9097C26.3379 25.1226 26.3379 25.4774 26.125 25.6903L21.0153 30.8C21.0153 30.9419 20.8734 30.9419 20.7315 30.9419Z" fill="white"/>
</g>
<defs>
<clipPath id="clip0_858:716">
<rect width="44" height="44" fill="white"/>
</clipPath>
</defs>
</svg>
