<svg width="107" height="107" viewBox="0 0 107 107" fill="none" xmlns="http://www.w3.org/2000/svg">
<g clip-path="url(#clip0)">
<path d="M76.9832 67.2258L55.6929 52.3379V26.75C55.6929 25.5441 54.7062 24.5574 53.5002 24.5574C52.2943 24.5574 51.3076 25.5441 51.3076 26.75V53.5C51.3076 54.2236 51.6584 54.8813 52.2504 55.2979L74.4836 70.8437C74.8564 71.1068 75.2949 71.2383 75.7334 71.2383C76.4131 71.2383 77.0929 70.9094 77.5314 70.2736C78.2111 69.2869 77.9699 67.9275 76.9832 67.2258Z" fill="black"/>
<path d="M91.6544 15.3456C81.4311 5.1224 67.8853 -0.5 53.5 -0.5C39.1147 -0.5 25.5689 5.1224 15.3456 15.3456C5.12239 25.5689 -0.5 39.1147 -0.5 53.5C-0.5 67.8853 5.12239 81.4311 15.3456 91.6544C25.5689 101.878 39.1147 107.5 53.5 107.5C67.8853 107.5 81.4311 101.878 91.6544 91.6544C101.878 81.4311 107.5 67.8853 107.5 53.5C107.5 39.1147 101.878 25.5689 91.6544 15.3456ZM102.046 56.1926C100.693 80.8645 80.8645 100.693 56.1926 102.046V93.625C56.1926 92.1429 54.9821 90.9324 53.5 90.9324C52.0179 90.9324 50.8074 92.1429 50.8074 93.625V102.046C26.1355 100.693 6.30683 80.8645 4.95443 56.1926H13.375C14.8571 56.1926 16.0676 54.9821 16.0676 53.5C16.0676 52.0179 14.8571 50.8074 13.375 50.8074H4.95443C6.30683 26.1355 26.1355 6.30683 50.8074 4.95444V13.375C50.8074 14.8571 52.0179 16.0676 53.5 16.0676C54.9821 16.0676 56.1926 14.8571 56.1926 13.375V4.95444C80.8645 6.30683 100.693 26.1355 102.046 50.8074H93.625C92.1429 50.8074 90.9324 52.0179 90.9324 53.5C90.9324 54.9821 92.1429 56.1926 93.625 56.1926H102.046Z" fill="black" stroke="black"/>
</g>
<defs>
<clipPath id="clip0">
<rect width="107" height="107" fill="white"/>
</clipPath>
</defs>
</svg>
